<?xml version="1.0" encoding="utf-8"?>
<!-- Generator: Adobe Illustrator 22.0.1, SVG Export Plug-In . SVG Version: 6.00 Build 0)  -->
<svg version="1.1" id="Layer_1" xmlns="http://www.w3.org/2000/svg" xmlns:xlink="http://www.w3.org/1999/xlink" x="0px" y="0px"
	 viewBox="0 0 841.9 595.3" style="enable-background:new 0 0 841.9 595.3;" xml:space="preserve">
<style type="text/css">
	.st0{fill:none;stroke:#3EA7D9;stroke-width:3;stroke-miterlimit:10;}
	.st1{fill:none;stroke:#3EA7D9;stroke-miterlimit:10;}
	.st2{fill:#3EA7D9;}
	.st3{fill:none;stroke:#3EA7D9;stroke-width:6;stroke-miterlimit:10;}
	.st4{fill:none;stroke:#3EA7D9;stroke-width:6;stroke-linecap:round;stroke-linejoin:round;stroke-miterlimit:10;}
	.st5{fill:none;stroke:#3EA7D9;stroke-width:2;stroke-linecap:round;stroke-linejoin:round;stroke-miterlimit:10;}
	.st6{fill:none;stroke:#3EA7D9;stroke-linecap:round;stroke-linejoin:round;stroke-miterlimit:10;}
	.st7{display:none;fill:none;stroke:#3EA7D9;stroke-width:2;stroke-linecap:round;stroke-linejoin:round;stroke-miterlimit:10;}
	.st8{fill:none;stroke:#3EA7D9;stroke-width:0.5;stroke-linecap:round;stroke-linejoin:round;stroke-miterlimit:10;}
	.st9{fill:none;stroke:#FFFFFF;stroke-linecap:round;stroke-miterlimit:10;}
	.st10{fill:none;stroke:#FFFFFF;stroke-miterlimit:10;}
</style>
<image style="display:none;overflow:visible;opacity:0.19;" width="450" height="450" xlink:href="F769CACF.jpg"  transform="matrix(0.2771 1.274837e-03 1.339299e-03 -0.2911 666.498 242.8954)">
</image>
<g>
	<g>
		<path class="st0" d="M85.9,385.7h-29c-7.5,0-13.7-6.1-13.7-13.7v-29c0-7.5,6.1-13.7,13.7-13.7h29c7.5,0,13.7,6.1,13.7,13.7v29
			C99.5,379.6,93.4,385.7,85.9,385.7z"/>
		<path class="st0" d="M84.8,380.1H57.9c-5.1,0-9.2-4.1-9.2-9.2v-26.8c0-5.1,4.1-9.2,9.2-9.2h26.8c5.1,0,9.2,4.1,9.2,9.2v26.8
			C93.9,376,89.8,380.1,84.8,380.1z"/>
		<circle class="st0" cx="71.4" cy="357.5" r="15.3"/>
		<circle class="st1" cx="71.4" cy="349.5" r="2.1"/>
		<circle class="st2" cx="64.4" cy="357.5" r="2.3"/>
		<circle class="st2" cx="79.3" cy="357.5" r="2.3"/>
	</g>
	<path class="st3" d="M784.3,221.2H666.8c-2.8,0-4.9-2.4-4.6-5.2l16.7-132c0.3-2.3,2.3-4,4.6-4h82.3c2.3,0,4.2,1.7,4.6,4l18.5,132
		C789.2,218.7,787.1,221.2,784.3,221.2z"/>
	<path class="st3" d="M725.6,221.2v236.9c0,22-17.9,39.9-39.9,39.9H562.9c-58,0-87-28.6-139-28.6c-33.5,0-71.5,28.4-113,28.4
		c-30.5,0-34.2-29.8-71.6-23.2c-37.3,6.7-25.3,25.6-85,19.8c-51.4-5-55.7-12.8-44.1-17.8c16.3-7,55.5,3.6,47.2-7.5
		c-5.8-7.7-32.9-0.6-46.4-17.4"/>
	<path class="st4" d="M729.6,498h52.2c22.1,0,14.7-5.1-21.7-14.4c-10.4-2.7-20.4-4.4-24.6-12.4"/>
	<g>
		<path class="st2" d="M113.5,420l-33.2,24.3c-0.8,0.6-2,0.4-2.6-0.4l-0.1-0.1c-0.6-0.8-0.4-2,0.4-2.6l33.2-24.3
			c0.8-0.6,2-0.4,2.6,0.4l0.1,0.1C114.5,418.2,114.3,419.4,113.5,420z"/>
		<path class="st2" d="M73.4,420.6L73.4,420.6c-1.1,0.8-1.3,2.3-0.5,3.4l9.3,12.7l3.9-2.9l-9.3-12.7C76,420.1,74.5,419.8,73.4,420.6
			z"/>
		<path class="st2" d="M92.6,406.6L92.6,406.6c-1.1,0.8-1.3,2.3-0.5,3.4l9.3,12.7l3.9-2.9L96,407.1C95.2,406,93.7,405.8,92.6,406.6z
			"/>
		<path class="st2" d="M111.4,452.1L111.4,452.1c-8.3,6.1-20,4.3-26.1-4l-2.6-3.6l30.1-22l2.6,3.6
			C121.5,434.3,119.7,446,111.4,452.1z"/>
	</g>
	<g>
		<path class="st5" d="M714.6,190.4c0,0-1.9-7.3-6.4-12.7c-9.2-10.9-4.8-34.9,16.2-34.9c0.6,0,1.2,0,1.8,0.1l-5.6,7.8l4.6,1.4
			l0.4,5.3l3.6-1.5l1.8,3.4l9.1-0.3l0.6,3.7l4.8-0.3l1.9,5.3c-0.5,3.9-1.9,7.8-4.4,11.2c-2.8,3.9-4.9,6.4-6,9.6
			c-2.2,6.6-1.6,7.6-20.9,8.5"/>
		<path class="st6" d="M708.1,160.6c0,0-0.2-11.1,10.7-12.7"/>
		<path class="st7" d="M714.6,166.4c0,0,1.8-0.8,4.7-1.4c3.9-0.8,9.9-1.1,16.5,1.4"/>
		<path class="st6" d="M723.1,190.4c0,0-1.7-21.5-3.9-25.4"/>
		<path class="st6" d="M727.3,190.4c0-0.4,1-19.3,3.6-25.4"/>
		<path class="st2" d="M732.5,201.4l-15.1,1c-1,0.1-1.8-0.5-1.8-1.4l0,0c-0.1-0.8,0.7-1.5,1.6-1.6l15.1-1c1-0.1,1.8,0.5,1.8,1.4l0,0
			C734.2,200.6,733.5,201.4,732.5,201.4z"/>
		<path class="st2" d="M730.8,205.9l-11.6,0.8c-0.9,0.1-1.8-0.5-1.8-1.2l0,0c-0.1-0.7,0.7-1.4,1.6-1.5l11.6-0.8
			c0.9-0.1,1.8,0.5,1.8,1.2v0C732.4,205.1,731.7,205.8,730.8,205.9z"/>
		<path class="st2" d="M727.7,212.4l-4.7,0.3c-2.1,0.1-3.8-1.4-4-3.5l0,0c0-0.6,0.4-1.1,1-1.2l10-0.6c0.6,0,1.1,0.4,1.2,1l0,0
			C731.3,210.5,729.8,212.2,727.7,212.4z"/>
		<path class="st8" d="M719.5,165.6c0,0,0.6-0.7,1.2-0.3c0.6,0.3,0.6,0.9,1,0.9c0.4,0,1.1-1.2,1.6-0.6s-0.6,1.7,0.5,2.3"/>
		<path class="st8" d="M731,165c0,0-1.4,0.3-2.8,2.7c0,0,0.9-2-1.5-0.4"/>
	</g>
</g>
<line class="st9" x1="91.3" y1="444.8" x2="110.9" y2="430.2"/>
<line class="st9" x1="96.1" y1="445.7" x2="109.8" y2="435.2"/>
<line class="st9" x1="100.5" y1="446.1" x2="109.7" y2="439.1"/>
<path class="st10" d="M101.7,448.1"/>
</svg>
