<?xml version="1.0" encoding="utf-8"?>
<!-- Generator: Adobe Illustrator 22.0.1, SVG Export Plug-In . SVG Version: 6.00 Build 0)  -->
<svg version="1.1" id="Layer_1" xmlns="http://www.w3.org/2000/svg" xmlns:xlink="http://www.w3.org/1999/xlink" x="0px" y="0px"
	 viewBox="0 0 595.3 841.9" style="enable-background:new 0 0 595.3 841.9;" xml:space="preserve">
<style type="text/css">
	.st0{fill:none;stroke:#3EA7DA;stroke-width:6;stroke-linecap:round;stroke-linejoin:round;stroke-miterlimit:10;}
	.st1{fill:none;stroke:#3EA7DA;stroke-width:8;stroke-linecap:round;stroke-linejoin:round;stroke-miterlimit:10;}
	.st2{fill:none;stroke:#3EA7DA;stroke-width:3;stroke-linecap:round;stroke-linejoin:round;stroke-miterlimit:10;}
</style>
<path class="st0" d="M153.3,556c-10.2,0-20.1-1.3-29.5-3.6c-53.3-13.3-93.2-61.8-93.2-119.1V144.7C30.6,77.2,85.8,22,153.3,22H442
	c67.5,0,122.7,55.2,122.7,122.7v288.6c0,33.6-13.7,64.1-35.8,86.4"/>
<path class="st0" d="M225.6,421.2c-48.6-25.8-81.8-77-81.8-135.9c0-84.9,68.9-153.8,153.8-153.8s153.8,68.9,153.8,153.8
	c0,39.6-15,75.7-39.5,102.9"/>
<g>
	<path class="st0" d="M278.5,730.6v-20.9c0-3.6-1.8-7-4.8-9c-19.9-13.2-100.8-69.6-101-173.2c0-20.5,12.9-42.4,41.1-40.7
		c32.6,2,32.6,26.9,32.6,26.9"/>
	<path class="st0" d="M227.5,549c0,0,19-3.6,19-23.6V292.8c0-18.3,14.8-33.1,33.1-33.1h0c18.3,0,33.1,14.8,33.1,33.1v145.8
		c0,2.4,2.9,3.2,4.5,1.3c1.7-2.1,2.4-13.7,4.5-21.6c3.2-11.7,9-20.5,28.2-20.3h0c12.2,0,22.5,9,24.1,21.1l2.3,17.2
		c0.4,3.2,4.9,3.8,6.2,0.8l3.5-14.2c3.9-9.1,8.6-18.1,29.2-15.2c16.5,2.3,22,10,23.7,22l2.3,16.8c0.4,3.3,4,3.7,5.3,0.7
		c0,0,1.9-12.2,7.5-17.7c7.2-6.9,38-21.7,50.5,46.9c4,21.6,19.9,141.9-3,203.2c-6.5,17.3-26.2,22.1-27.4,38v12.7"/>
	<path class="st1" d="M494.3,822.7H259.9c-3.1,0-5.6-2.5-5.6-5.6v-81.2c0-3.1,2.5-5.6,5.6-5.6h234.4c3.1,0,5.6,2.5,5.6,5.6v81.2
		C499.9,820.2,497.4,822.7,494.3,822.7z"/>
</g>
<line class="st2" x1="65.9" y1="218.5" x2="112.7" y2="218.5"/>
<line class="st2" x1="98" y1="165.6" x2="123.4" y2="176.3"/>
<line class="st2" x1="112.7" y1="104.1" x2="146.6" y2="137.9"/>
<line class="st2" x1="174.3" y1="89.3" x2="186" y2="114.3"/>
<line class="st2" x1="229.7" y1="55.8" x2="229.7" y2="104.1"/>
<path class="st2" d="M57.4,435.3c0,49.2,39.9,89.1,89.1,89.1h0"/>
<line class="st2" x1="537.3" y1="377.2" x2="537.3" y2="142.4"/>
<path class="st2" d="M397.6,48.9c0,0,94.6-11.3,122,39.2"/>
<circle class="st2" cx="451.4" cy="778.3" r="19.1"/>
</svg>
