<?xml version="1.0" encoding="utf-8"?>
<!-- Generator: Adobe Illustrator 22.0.1, SVG Export Plug-In . SVG Version: 6.00 Build 0)  -->
<svg version="1.1" id="Layer_1" xmlns="http://www.w3.org/2000/svg" xmlns:xlink="http://www.w3.org/1999/xlink" x="0px" y="0px"
	 viewBox="0 0 595.3 841.9" style="enable-background:new 0 0 595.3 841.9;" xml:space="preserve">
<style type="text/css">
	.st0{fill:none;stroke:#3EA7D9;stroke-width:6;stroke-linecap:round;stroke-linejoin:round;stroke-miterlimit:10;}
	.st1{fill:none;stroke:#3EA7D9;stroke-width:3;stroke-linecap:round;stroke-linejoin:round;stroke-miterlimit:10;}
	.st2{display:none;fill:none;stroke:#3EA7D9;stroke-width:2;stroke-linecap:round;stroke-linejoin:round;stroke-miterlimit:10;}
	.st3{fill:none;stroke:#3EA7D9;stroke-width:6;stroke-miterlimit:10;}
	.st4{fill:none;stroke:#3EA7D9;stroke-width:3;stroke-miterlimit:10;}
</style>
<g>
	<path class="st0" d="M176.7,563.4c0,0-21.2-82.4-72.5-143.3C0.2,296.8,50.2,26,287.3,26c7,0,13.9,0.2,20.7,0.6l-63.6,88.2
		l51.7,16.2l4.7,59.3l40.5-16.9l20.5,38.8l102.9-2.8l7.1,41.6l53.6-3.5l20.9,60.1c-5.2,44.2-21.6,87.9-49.8,126.1
		c-32.1,43.6-55.4,72.6-67.2,108.8c-24.3,74.3-17.8,85.4-236.2,96.3"/>
	<path class="st1" d="M96.3,215.9c0,0-2.5-125.7,121.1-143.4"/>
	<path class="st2" d="M176.7,292.7c0,0,20-9.2,53-15.7c44.2-8.8,111.7-13,185.8,15.7"/>
	<path class="st0" d="M273.4,563.4c0,0-19.4-243.1-43.8-286.5"/>
	<path class="st0" d="M320.8,563.4c0-4.9,10.8-218,40.9-286.5"/>
	<path class="st3" d="M379.4,688.4l-170.9,11.9c-10.8,0.7-20.1-6.2-20.7-15.4v0c-0.6-9.3,7.6-17.4,18.4-18.1l170.9-11.9
		c10.8-0.7,20.1,6.2,20.7,15.4v0C398.4,679.5,390.2,687.7,379.4,688.4z"/>
	<path class="st3" d="M359.5,738.5l-131.4,9.1c-10.7,0.7-19.9-5.5-20.4-14h0c-0.6-8.5,7.7-15.9,18.4-16.6l131.4-9.1
		c10.7-0.7,19.9,5.5,20.4,14l0,0C378.5,730.3,370.3,737.7,359.5,738.5z"/>
	<path class="st3" d="M332.4,811.5l-67.3,4.3c-19.3,1.2-36-13.4-37.3-32.8v0c-0.7-10.7,7.4-20,18.2-20.7l98.5-6.4
		c10.7-0.7,20,7.4,20.7,18.2v0C366.4,793.5,351.7,810.2,332.4,811.5z"/>
	<path class="st1" d="M232.8,283.4c0,0,6.7-7.4,13.7-3.6s7,10.7,11.2,10.3c4.2-0.4,12.7-13.5,18.4-6.9s-7,19.5,5.7,26.1"/>
	<path class="st1" d="M361.7,276.9c0,0-15.4,3.4-31.2,30.6c0,0,10.4-22.5-17.1-4.8"/>
	<path class="st4" d="M292.8,803c0,0,61.2,5.3,61.2-22"/>
</g>
</svg>
