<?xml version="1.0" encoding="utf-8"?>
<!-- Generator: Adobe Illustrator 22.0.1, SVG Export Plug-In . SVG Version: 6.00 Build 0)  -->
<svg version="1.1" id="Layer_1" xmlns="http://www.w3.org/2000/svg" xmlns:xlink="http://www.w3.org/1999/xlink" x="0px" y="0px"
	 viewBox="0 0 595.3 841.9" style="enable-background:new 0 0 595.3 841.9;" xml:space="preserve">
<style type="text/css">
	.st0{fill:none;stroke:#3EA7DA;stroke-width:6;stroke-miterlimit:10;}
	.st1{fill:none;stroke:#3EA7DA;stroke-width:3;stroke-linecap:round;stroke-miterlimit:10;}
	.st2{fill:none;stroke:#3EA7DA;stroke-width:6;stroke-linecap:round;stroke-miterlimit:10;}
</style>
<g>
	<path class="st0" d="M170.4,384.3l114.2-98.5c6.6-5.7,16.3-5.7,22.9-0.1l117.2,98.7c1.5,1.2,2.3,3,2.3,4.9v160.2
		c0,6.1-4.9,11-11,11H179.2c-6.1,0-11-4.9-11-11V389.2C168.2,387.3,169,385.5,170.4,384.3z"/>
	<path class="st0" d="M171.2,557l111.2-96.6c8.7-7.6,21.7-7.6,30.4,0L424,557"/>
	<line class="st0" x1="427.1" y1="386.2" x2="324.8" y2="470.8"/>
	<line class="st0" x1="168.2" y1="386.2" x2="270.5" y2="470.8"/>
	<circle class="st0" cx="296.6" cy="327" r="12.2"/>
	<path class="st0" d="M320.3,326.2c-0.4-12-10.1-22-22.1-22.7c-13.8-0.9-25.2,10-25.2,23.6c0,9.9,6.1,18.4,14.8,21.9
		c1.2,0.5,2,1.6,2,3v88.8c0,2,1.7,3.7,3.7,3.7h3.6c2,0,3.7-1.7,3.7-3.7v-1.8c0-2,1.7-3.7,3.7-3.7h8.8c2,0,3.7-1.6,3.7-3.7v-2.7
		c0-2-1.6-3.7-3.7-3.7h-10.1c-1.3,0-2.4-1.1-2.4-2.4v-5.2c0-1.3,1.1-2.4,2.4-2.4h6c2.1,0,3.7-1.7,3.7-3.7v-2c0-2.1-1.7-3.7-3.7-3.7
		h-6.7c-0.9,0-1.7-0.8-1.7-1.7v-51.2c0-1.4,0.9-2.6,2.2-3C313.3,346,320.7,337,320.3,326.2z"/>
	<line class="st1" x1="200.2" y1="549.2" x2="394.7" y2="549.2"/>
	<line class="st1" x1="310.2" y1="386.2" x2="411.1" y2="386.2"/>
	<line class="st1" x1="181.9" y1="386.2" x2="208.7" y2="386.2"/>
	<line class="st1" x1="215.8" y1="386.2" x2="280.5" y2="386.2"/>
	<line class="st1" x1="417.5" y1="404.6" x2="417.5" y2="512.9"/>
	<line class="st1" x1="417.5" y1="520.5" x2="417.5" y2="539.6"/>
</g>
<circle class="st2" cx="297.6" cy="420.9" r="290.7"/>
<path class="st1" d="M483.3,600.7c-14.2,14.5-29.9,27.1-46.8,37.8"/>
<path class="st1" d="M71.4,292.6C19,382.8,24.8,499.8,94.8,585.3c72.7,88.8,192.3,116.5,293.6,76.6"/>
<path class="st1" d="M213.1,176.7c98.8-33.6,212.3-4.7,282.3,80.8c72.7,88.8,76.2,211.5,17,303"/>
<path class="st1" d="M103.7,250c13.5-15.1,28.6-28.5,45-39.9"/>
</svg>
