<?xml version="1.0" encoding="utf-8"?>
<!-- Generator: Adobe Illustrator 22.0.1, SVG Export Plug-In . SVG Version: 6.00 Build 0)  -->
<svg version="1.1" id="Layer_1" xmlns="http://www.w3.org/2000/svg" xmlns:xlink="http://www.w3.org/1999/xlink" x="0px" y="0px"
	 viewBox="0 0 595.3 841.9" style="enable-background:new 0 0 595.3 841.9;" xml:space="preserve">
<style type="text/css">
	.st0{fill:none;stroke:#3EA7DA;stroke-width:6;stroke-linecap:round;stroke-miterlimit:10;}
	.st1{fill:none;stroke:#3EA7DA;stroke-width:3;stroke-linecap:round;stroke-miterlimit:10;}
	.st2{fill:none;stroke:#3EA7DA;stroke-width:6;stroke-linecap:round;stroke-linejoin:round;stroke-miterlimit:10;}
	.st3{fill:#3EA7DA;}
	.st4{fill:none;stroke:#3EA7DA;stroke-width:6;stroke-linecap:round;stroke-linejoin:bevel;stroke-miterlimit:10;}
</style>
<circle class="st0" cx="297.6" cy="420.9" r="288.8"/>
<path class="st1" d="M43,491.9c-3.7-13.4-6.4-27.3-8-41.6"/>
<path class="st1" d="M491.8,599.2c-41.6,45.5-99.2,76.6-165.3,84c-120.1,13.5-230.4-56-273.8-162.7"/>
<g>
	<g>
		<g>
			<path class="st2" d="M233.1,412.3v68.8c0,14.2,11.5,25.7,25.7,25.7H335c14.2,0,25.7-11.5,25.7-25.7v-68.8H233.1z"/>
			<g>
				<path class="st0" d="M257.9,412.3V373c0-22.1,17.9-40.1,40.1-40.1h0"/>
				<path class="st0" d="M337,412.3V373c0-22.1-17.9-40.1-40.1-40.1h0"/>
			</g>
			<path class="st3" d="M299.5,474.9h-3.9c-1.7,0-3.2-1.4-3.2-3.2v-24.3c0-1.7,1.4-3.2,3.2-3.2h3.9c1.7,0,3.2,1.4,3.2,3.2v24.3
				C302.7,473.5,301.3,474.9,299.5,474.9z"/>
			<line class="st1" x1="352.2" y1="423.6" x2="352.2" y2="479.2"/>
			<path class="st1" d="M242.1,474.9v5.1c0,10.5,8.5,19,19,19h2.4"/>
			<line class="st1" x1="269.2" y1="498.9" x2="277.9" y2="498.9"/>
		</g>
		<g>
			<path class="st0" d="M484.3,387"/>
			<path class="st4" d="M164.9,284.4C121.4,326.9,99,389.6,110.5,454C129,557.2,227.7,625.9,330.9,607.4"/>
			<path class="st4" d="M95.2,306.3"/>
			<path class="st4" d="M164.3,282.3"/>
			<path class="st4" d="M166.7,357.1"/>
			<polyline class="st0" points="102.1,295.7 164.7,284.5 175.9,347.1 			"/>
		</g>
		<g>
			<path class="st0" d="M110.7,454.9"/>
			<path class="st4" d="M430.1,557.4c43.5-42.5,65.9-105.1,54.4-169.5C466,284.7,367.3,216,264.1,234.5"/>
			<polyline class="st0" points="492.9,546.2 430.3,557.4 419.1,494.8 			"/>
		</g>
	</g>
</g>
</svg>
