<svg xmlns="http://www.w3.org/2000/svg" viewBox="0 0 128 81.67"><defs><style>.cls-1{fill:#3ea7db;}</style></defs><title>Asset 4</title><g id="Layer_2" data-name="Layer 2"><g id="Visibility_-eye" data-name="Visibility -eye"><path class="cls-1" d="M64,4.05c18.54,0,34.4,6.67,47.15,19.82a75.44,75.44,0,0,1,11.43,15.36,6,6,0,0,1-.26,6.29,77.53,77.53,0,0,1-11.71,13.86c-13,12.11-28.44,18.24-45.93,18.24S31.44,71.47,18,59.33A81.72,81.72,0,0,1,5.82,45.5,6.11,6.11,0,0,1,5.52,39,74.93,74.93,0,0,1,16.83,23.87C29.57,10.72,45.44,4.05,64,4.05m0-4C24.15,0,5.69,29.66.67,39.47a6.07,6.07,0,0,0,.29,6c5.8,9.09,26.25,36.16,63.7,36.16s57-27.15,62.47-36.2a6.07,6.07,0,0,0,.2-5.91C122.38,29.83,103.93,0,64,0Z"/><path class="cls-1" d="M63.34,67.57c-15,0-27.11-12.44-27.11-27.74S48.39,12.1,63.34,12.1s27.1,12.44,27.1,27.73S78.28,67.57,63.34,67.57Zm0-53.47c-13.85,0-25.11,11.54-25.11,25.73S49.49,65.57,63.34,65.57,88.44,54,88.44,39.83,77.18,14.1,63.34,14.1Z"/><path class="cls-1" d="M48,46.18a1,1,0,0,1-1-.76c-.1-.41-2.37-10,2.85-16.65,3.12-4,8.19-6,15.09-6a1,1,0,0,1,0,2c-6.25,0-10.79,1.75-13.51,5.2-4.62,5.87-2.51,14.86-2.49,15a1,1,0,0,1-.73,1.21A1,1,0,0,1,48,46.18Z"/></g></g></svg>