<svg xmlns="http://www.w3.org/2000/svg" viewBox="0 0 100 128"><defs><style>.cls-1{fill:#3ea7db;}</style></defs><title>Asset 1</title><g id="Layer_2" data-name="Layer 2"><g id="Password_-_lock" data-name="Password - lock"><path class="cls-1" d="M94,48H6a5.84,5.84,0,0,0-6,5.65v68.7A5.84,5.84,0,0,0,6,128H94a5.84,5.84,0,0,0,6-5.65V53.65A5.84,5.84,0,0,0,94,48Zm2,74.35a2,2,0,0,1-2,1.89H6a2,2,0,0,1-2-1.89V53.65a2,2,0,0,1,2-1.89H94a2,2,0,0,1,2,1.89Z"/><path class="cls-1" d="M50,95a5.58,5.58,0,0,1-5.58-5.58V71.58a5.58,5.58,0,1,1,11.16,0V89.42A5.58,5.58,0,0,1,50,95Zm0-27a3.58,3.58,0,0,0-3.58,3.58V89.42a3.58,3.58,0,1,0,7.16,0V71.58A3.58,3.58,0,0,0,50,68Z"/><path class="cls-1" d="M50,0A37.5,37.5,0,0,0,12.5,37.5V48h4V37.5a33.5,33.5,0,0,1,67,0V48h4V37.5A37.5,37.5,0,0,0,50,0Z"/><path class="cls-1" d="M90.58,73a1,1,0,0,1-1-1V56a1,1,0,1,1,2,0V72A1,1,0,0,1,90.58,73Z"/><path class="cls-1" d="M19.58,120h-11a1,1,0,0,1-1-1v-7a1,1,0,0,1,2,0v6h10a1,1,0,0,1,0,2Z"/><path class="cls-1" d="M27.58,120h-5a1,1,0,1,1,0-2h5a1,1,0,0,1,0,2Z"/></g></g></svg>