<svg xmlns="http://www.w3.org/2000/svg" viewBox="0 0 128 69.5"><defs><style>.cls-1{fill:#3ea7db;}</style></defs><title>Asset 5</title><g id="Layer_2" data-name="Layer 2"><g id="Email"><path class="cls-1" d="M126,69.5H2a2,2,0,0,1-2-2V2a2.39,2.39,0,0,1,.06-.53A2,2,0,0,1,.36.86,1.84,1.84,0,0,1,1,.29,2,2,0,0,1,1.78,0H126a2,2,0,0,1,1.27.47,2.5,2.5,0,0,1,.23.23A2,2,0,0,1,128,2h0V67.5A2,2,0,0,1,126,69.5ZM4,65.5H124V5.3L66.77,35.06A8,8,0,0,1,59.29,35L4,5.34ZM10,4,61.18,31.49a4,4,0,0,0,3.74,0L117.82,4Z"/><path class="cls-1" d="M118,60.5h-8a1,1,0,0,1,0-2h8a1,1,0,0,1,0,2Z"/><path class="cls-1" d="M103,60.67H79a1,1,0,0,1,0-2h24a1,1,0,0,1,0,2Z"/><path class="cls-1" d="M72,60.5H65a1,1,0,0,1,0-2h7a1,1,0,0,1,0,2Z"/></g></g></svg>