<svg xmlns="http://www.w3.org/2000/svg" viewBox="0 0 105.27 128"><title>Asset 1</title><g id="Layer_2" data-name="Layer 2"><g id="Layer_7" data-name="Layer 7"><path d="M52.63,73.43A36.72,36.72,0,1,1,89.35,36.72,36.75,36.75,0,0,1,52.63,73.43Zm0-69.55A32.84,32.84,0,1,0,85.47,36.72,32.87,32.87,0,0,0,52.63,3.88Z" fill="#3ea7db"/><path d="M103.33,128H1.94A1.94,1.94,0,0,1,0,126.06,52.26,52.26,0,0,1,25.5,81a1.94,1.94,0,0,1,2,3.32A48.39,48.39,0,0,0,3.92,124.12h97.43A48.47,48.47,0,0,0,78.19,84.53a1.94,1.94,0,1,1,2-3.3,52.35,52.35,0,0,1,25,44.83A1.94,1.94,0,0,1,103.33,128Z" fill="#3ea7db"/><path d="M52.53,59.45A23.11,23.11,0,0,1,39,55.1a1,1,0,0,1-.22-1.35,1,1,0,0,1,1.35-.22A21.39,21.39,0,0,0,64,54.16a1,1,0,0,1,1,1.64A23.21,23.21,0,0,1,52.53,59.45Z" fill="#3ea7db"/></g></g></svg>